<?xml version="1.0" standalone="no"?>
<!DOCTYPE svg PUBLIC "-//W3C//DTD SVG 20010904//EN"
 "http://www.w3.org/TR/2001/REC-SVG-20010904/DTD/svg10.dtd">
<svg version="1.0" xmlns="http://www.w3.org/2000/svg"
 width="512.000000pt" height="512.000000pt" viewBox="0 0 512.000000 512.000000"
 preserveAspectRatio="xMidYMid meet">

<g transform="translate(0.000000,512.000000) scale(0.100000,-0.100000)"
fill="#ffffff" stroke="none">
<path d="M3365 4709 c-213 -31 -416 -124 -582 -267 -178 -153 -311 -385 -365
-637 -16 -78 -16 -332 0 -410 51 -236 154 -427 318 -590 l90 -91 -168 -308
c-93 -170 -167 -310 -165 -312 1 -2 154 97 338 219 l334 223 68 -17 c646 -168
1293 255 1392 911 83 545 -237 1063 -763 1236 -146 48 -345 65 -497 43z m130
-254 c30 -29 33 -74 8 -104 -19 -22 -267 -111 -311 -111 -33 0 -72 43 -72 78
0 51 27 69 165 116 153 52 177 55 210 21z m236 -154 c20 -16 25 -31 29 -86 5
-67 5 -67 43 -82 l37 -15 45 41 c53 49 93 54 130 16 38 -37 33 -77 -16 -130
l-41 -45 15 -37 c15 -38 15 -38 82 -43 75 -6 105 -28 105 -80 0 -52 -30 -74
-105 -80 -67 -5 -67 -5 -82 -43 l-15 -37 41 -45 c48 -52 54 -95 19 -132 -35
-37 -80 -31 -133 18 l-45 41 -37 -15 c-38 -15 -38 -15 -43 -82 -6 -75 -28
-105 -80 -105 -52 0 -74 30 -80 105 -5 67 -5 67 -43 82 l-37 15 -45 -41 c-53
-49 -93 -54 -130 -16 -38 37 -33 77 16 130 l41 45 -15 37 c-15 38 -15 38 -82
43 -75 6 -105 28 -105 80 0 52 30 74 105 80 67 5 67 5 82 43 l15 37 -41 45
c-49 53 -54 93 -16 130 37 38 77 33 130 -16 l45 -41 37 15 c38 15 38 15 43 82
6 75 28 105 80 105 15 0 38 -9 51 -19z m564 -166 c16 -15 25 -36 25 -55 0 -19
-9 -40 -25 -55 -15 -16 -36 -25 -55 -25 -19 0 -40 9 -55 25 -16 15 -25 36 -25
55 0 19 9 40 25 55 15 16 36 25 55 25 19 0 40 -9 55 -25z m-1360 -160 c16 -15
25 -36 25 -55 0 -19 -9 -40 -25 -55 -15 -16 -36 -25 -55 -25 -19 0 -40 9 -55
25 -16 15 -25 36 -25 55 0 19 9 40 25 55 15 16 36 25 55 25 19 0 40 -9 55 -25z
m28 -387 c76 -50 142 -100 148 -109 26 -50 -13 -119 -68 -119 -30 0 -298 171
-314 201 -26 50 13 119 68 119 18 0 75 -32 166 -92z m1412 -93 c16 -15 25 -36
25 -55 0 -19 -9 -40 -25 -55 -15 -16 -36 -25 -55 -25 -19 0 -40 9 -55 25 -16
15 -25 36 -25 55 0 19 9 40 25 55 15 16 36 25 55 25 19 0 40 -9 55 -25z m-581
-226 c30 -14 49 -57 41 -91 -8 -30 -181 -203 -213 -213 -54 -16 -112 42 -99
98 9 33 199 217 225 217 12 0 32 -5 46 -11z m-779 -94 c16 -15 25 -36 25 -55
0 -19 -9 -40 -25 -55 -15 -16 -36 -25 -55 -25 -19 0 -40 9 -55 25 -16 15 -25
36 -25 55 0 19 9 40 25 55 15 16 36 25 55 25 19 0 40 -9 55 -25z"/>
<path d="M3615 3986 c-101 -44 -125 -178 -46 -257 112 -113 296 -12 267 146
-18 94 -131 151 -221 111z"/>
<path d="M175 1826 c-72 -32 -95 -83 -95 -210 l0 -93 93 -6 c114 -8 223 -34
361 -86 251 -96 492 -95 754 3 186 70 251 81 447 81 192 -1 253 -12 410 -71
159 -59 229 -75 365 -81 178 -8 263 8 484 91 133 49 208 61 391 61 196 0 261
-12 447 -81 267 -100 498 -100 767 1 141 53 232 74 354 82 l89 6 -4 108 c-3
116 -12 139 -72 183 l-27 21 -2367 2 c-1957 2 -2372 0 -2397 -11z"/>
<path d="M82 852 c3 -498 4 -511 24 -538 11 -15 33 -37 48 -48 l27 -21 2379 0
2379 0 27 21 c15 11 37 33 48 48 20 27 21 40 24 538 l3 511 -88 -6 c-102 -8
-188 -29 -328 -81 -157 -60 -218 -70 -410 -71 -196 0 -261 12 -447 81 -262 98
-503 99 -755 3 -185 -70 -255 -83 -448 -84 -199 0 -262 11 -446 80 -164 61
-269 79 -434 72 -139 -6 -211 -22 -351 -77 -150 -60 -231 -74 -424 -75 -195 0
-248 9 -417 71 -144 52 -227 73 -326 80 l-88 7 3 -511z m373 83 c50 -49 15
-135 -55 -135 -41 0 -80 39 -80 80 0 41 39 80 80 80 19 0 40 -9 55 -25z m1120
0 c50 -49 15 -135 -55 -135 -19 0 -40 9 -55 25 -16 15 -25 36 -25 55 0 19 9
40 25 55 15 16 36 25 55 25 19 0 40 -9 55 -25z m1040 0 c50 -49 15 -135 -55
-135 -19 0 -40 9 -55 25 -16 15 -25 36 -25 55 0 19 9 40 25 55 15 16 36 25 55
25 19 0 40 -9 55 -25z m1040 0 c50 -49 15 -135 -55 -135 -41 0 -80 39 -80 80
0 41 39 80 80 80 19 0 40 -9 55 -25z m1120 0 c50 -49 15 -135 -55 -135 -41 0
-80 39 -80 80 0 41 39 80 80 80 19 0 40 -9 55 -25z m-3760 -320 c50 -49 15
-135 -55 -135 -41 0 -80 39 -80 80 0 41 39 80 80 80 19 0 40 -9 55 -25z m1120
0 c50 -49 15 -135 -55 -135 -41 0 -80 39 -80 80 0 41 39 80 80 80 19 0 40 -9
55 -25z m960 0 c50 -49 15 -135 -55 -135 -41 0 -80 39 -80 80 0 41 39 80 80
80 19 0 40 -9 55 -25z m1120 0 c50 -49 15 -135 -55 -135 -41 0 -80 39 -80 80
0 41 39 80 80 80 19 0 40 -9 55 -25z"/>
</g>
</svg>
